<svg xmlns="http://www.w3.org/2000/svg" width="24" height="24" viewBox="0 0 24 24" fill="none" class="injected-svg" data-src="/icons/volume-high-stroke-sharp.svg" xmlns:xlink="http://www.w3.org/1999/xlink" role="img" color="#000000">
<path d="M14.0003 4H14.7503C14.7503 3.72564 14.6005 3.47317 14.3596 3.34171C14.1188 3.21024 13.8254 3.22076 13.5947 3.36913L14.0003 4ZM14.0003 20L13.5947 20.6309C13.8254 20.7792 14.1188 20.7898 14.3596 20.6583C14.6005 20.5268 14.7503 20.2744 14.7503 20H14.0003ZM2.00098 8.5V7.75C1.58676 7.75 1.25098 8.08579 1.25098 8.5H2.00098ZM2.00098 15.5H1.25098C1.25098 15.9142 1.58676 16.25 2.00098 16.25V15.5ZM7.00098 8.5V9.25H7.22127L7.40657 9.13087L7.00098 8.5ZM7.00098 15.5L7.40657 14.8691L7.22127 14.75H7.00098V15.5ZM13.2503 4V20H14.7503V4H13.2503ZM1.25098 8.5V15.5H2.75098V8.5H1.25098ZM2.00098 9.25H7.00098V7.75H2.00098V9.25ZM2.00098 16.25H7.00098V14.75H2.00098V16.25ZM7.40657 9.13087L14.4059 4.63087L13.5947 3.36913L6.59538 7.86913L7.40657 9.13087ZM6.59538 16.1309L13.5947 20.6309L14.4059 19.3691L7.40657 14.8691L6.59538 16.1309Z" fill="#000000"></path>
<path d="M17 9C17.6254 9.81968 18 10.8634 18 12C18 13.1366 17.6254 14.1803 17 15" stroke="#000000" stroke-width="2" stroke-linejoin="round"></path>
<path d="M20 7C21.2508 8.36613 22 10.1057 22 12C22 13.8943 21.2508 15.6339 20 17" stroke="#000000" stroke-width="2" stroke-linejoin="round"></path>
</svg>